<svg width="71px" height="76px" viewBox="29 14 71 76" version="1.1" xmlns="http://www.w3.org/2000/svg"
        xmlns:xlink="http://www.w3.org/1999/xlink">
<path d="M304.356 0.0562783C208.679 -1.82384 144.359 43.7111 89 90.5419C24.0002 145.528 -14.5 211.542 6.87911 310.694C22.0828 381.206 113.246 432.23 438 419.542C614.159 412.66 644.152 283.303 614.159 193.918C569.753 61.5809 400.034 1.9364 304.356 0.0562783Z" fill="rgba(30,30,80,0.1)"/>
<path d="M310.582 0.390015V50.5266" stroke="#F5B2A9" stroke-miterlimit="10"/>
<path d="M311.418 50.3176C315.13 50.3176 318.69 51.7923 321.315 54.4171C323.94 57.0419 325.414 60.602 325.414 64.3141V87.9201H297.421V64.3141C297.421 60.602 298.896 57.0419 301.521 54.4171C304.146 51.7923 307.706 50.3176 311.418 50.3176V50.3176Z" stroke="#F5B2A9" stroke-miterlimit="10"/>
<path d="M267.394 1.20886V36.4173" stroke="#F5B2A9" stroke-miterlimit="10"/>
<path d="M268.129 36.2794C271.386 36.2794 274.509 37.5731 276.812 39.8759C279.115 42.1788 280.408 45.302 280.408 48.5587V69.286H255.85V48.5629C255.849 46.95 256.166 45.3528 256.783 43.8625C257.4 42.3723 258.304 41.0181 259.445 39.8774C260.585 38.7367 261.939 37.8319 263.429 37.2145C264.919 36.5972 266.516 36.2794 268.129 36.2794Z" stroke="#F5B2A9" stroke-miterlimit="10"/>
<path d="M90.0981 256.622C58.9006 250.405 46.3706 220.114 69.0491 224.522C50.7534 222.687 38.2903 204.154 64.5577 204.016C56.6821 207.843 35.8378 184.212 67.0645 188.457C58.3909 161.692 70.4655 157.464 73.5196 162.971C75.0864 170.992 74.5892 180.552 81.2657 186.74C81.2657 186.74 90.0062 181.496 93.3486 179.282C94.1007 178.78 94.9405 178.262 95.8555 178.371C97.7481 178.605 98.1534 181.17 97.9445 183.067C97.1575 189.57 94.8346 195.793 91.1677 201.221C90.7833 201.789 89.6385 202.131 89.6887 201.45C92.0117 199.574 95.1201 195.701 97.5935 197.385C104.717 202.253 96.3777 214.824 91.7443 222.115C90.9087 221.421 92.1287 220.239 93.1397 219.88C94.4349 219.416 95.8262 218.948 97.1549 219.295C98.7174 219.713 99.8204 221.179 100.217 222.742C100.614 224.304 100.426 225.951 100.18 227.547C98.6631 237.365 95.0533 246.766 90.6914 255.677L90.0981 256.622Z" fill="#F5B2A9"/>
<path d="M90.261 256.016C84.734 254.932 79.4171 252.967 74.514 250.196C70.4674 247.924 66.8158 245.012 63.7012 241.572C61.4408 239.036 59.3853 236.066 58.4828 232.765C58.1375 231.603 58.0295 230.384 58.1653 229.18C58.2073 228.912 58.2659 228.647 58.3407 228.386C58.3783 228.257 58.4243 228.127 58.4703 227.998C58.498 227.903 58.5373 227.811 58.5872 227.726C58.7891 227.269 59.0723 226.853 59.4229 226.498C60.2538 225.696 61.3034 225.158 62.4394 224.952C64.0689 224.643 65.7393 224.616 67.3779 224.873C67.8834 224.939 68.3848 225.027 68.882 225.123L69.0491 223.895C63.1497 223.289 56.8742 220.887 52.7547 216.466C51.9879 215.659 51.3394 214.748 50.8286 213.759C50.4227 212.974 50.1851 212.113 50.1309 211.231C50.0911 210.42 50.2948 209.615 50.7158 208.921C51.2494 208.089 51.9798 207.402 52.8424 206.919C54.2549 206.127 55.7899 205.576 57.384 205.29C59.7483 204.842 62.1513 204.629 64.5577 204.655L64.2401 203.485C64.0605 203.573 64.2401 203.485 64.0688 203.56C63.9644 203.598 63.8641 203.635 63.7597 203.665C63.6552 203.694 63.5591 203.719 63.4589 203.74C63.3586 203.761 63.0912 203.798 63.2458 203.782C62.8028 203.83 62.3559 203.83 61.913 203.782H61.8127L61.6832 203.761L61.3113 203.694C61.0732 203.64 60.835 203.581 60.6052 203.51C60.1244 203.369 59.6551 203.192 59.2014 202.98C57.1225 201.998 55.2722 200.592 53.77 198.852C53.0425 198.05 52.4192 197.16 51.9149 196.203C51.5737 195.577 51.322 194.906 51.167 194.21C51.142 194.097 51.1252 193.988 51.1044 193.88C51.0835 193.771 51.1044 193.729 51.1044 193.842C51.1044 193.775 51.1043 193.708 51.0835 193.642C51.0709 193.429 51.0709 193.215 51.0835 193.002C51.0835 192.899 51.0918 192.795 51.1085 192.689C51.1085 192.539 51.1085 192.756 51.1085 192.643C51.1085 192.53 51.1294 192.53 51.1378 192.476C51.183 192.267 51.243 192.062 51.3174 191.862C51.3383 191.807 51.3717 191.732 51.3174 191.832L51.3885 191.682C51.4428 191.582 51.4929 191.482 51.5514 191.381C51.6099 191.281 51.66 191.218 51.7143 191.135C51.7566 191.064 51.8087 190.999 51.8689 190.943C52.0286 190.763 52.2003 190.594 52.3828 190.437C52.7924 190.118 53.2384 189.849 53.7115 189.635C55.0571 189.085 56.4842 188.76 57.9355 188.674C60.2162 188.51 62.5071 188.558 64.7791 188.816C65.4977 188.887 66.2122 188.971 66.9266 189.067C67.3444 189.125 67.8583 188.799 67.6954 188.294C65.9531 182.891 64.5117 177.172 64.6454 171.452C64.6592 169.696 64.9194 167.951 65.4183 166.267C65.6026 165.652 65.8461 165.056 66.1453 164.487C66.2832 164.228 66.4336 163.973 66.5966 163.727C66.7299 163.518 66.8794 163.319 67.0436 163.133C67.2069 162.942 67.3813 162.761 67.5659 162.59C67.7059 162.451 67.8599 162.326 68.0255 162.218C68.2101 162.087 68.4042 161.97 68.6062 161.867L68.8193 161.767L69.07 161.675C69.2596 161.617 69.452 161.568 69.6465 161.529C69.8638 161.487 69.5922 161.529 69.8095 161.529C69.9098 161.529 70.01 161.529 70.1145 161.529C70.2189 161.529 70.2858 161.529 70.3735 161.529C70.4613 161.529 70.6743 161.562 70.5448 161.529C70.7272 161.558 70.9073 161.6 71.0838 161.654L71.347 161.746C71.2217 161.7 71.418 161.78 71.5058 161.822C71.6729 161.909 71.8275 162.01 71.9862 162.114C72.145 162.218 71.9654 162.085 72.0991 162.202L72.3288 162.406C72.3999 162.473 72.4667 162.544 72.5336 162.615C72.6004 162.686 72.7508 162.883 72.6506 162.753C73.1812 163.451 73.177 164.404 73.3107 165.26C73.5321 166.676 73.7076 168.097 73.8956 169.517C74.6393 175.162 75.5668 181.053 79.3271 185.582C79.7994 186.153 80.3089 186.691 80.8521 187.195C80.9517 187.29 81.0795 187.351 81.2164 187.368C81.3533 187.386 81.4922 187.359 81.6125 187.291C84.9883 185.269 88.3558 183.226 91.6899 181.124C92.676 180.502 93.6578 179.716 94.719 179.227C95.3624 178.931 96.1061 178.881 96.62 179.432C97.0005 179.913 97.2354 180.493 97.2969 181.103C97.5517 182.649 97.1757 184.304 96.8791 185.816C96.519 187.672 96.0318 189.5 95.4209 191.289C94.7531 193.259 93.9303 195.173 92.9601 197.013C92.4671 197.957 91.9323 198.885 91.3682 199.787C91.1462 200.208 90.8816 200.604 90.5786 200.97C90.4961 201.053 90.3982 201.12 90.2903 201.166C90.2221 201.183 90.1551 201.204 90.0897 201.229H90.0688C90.1524 201.312 90.2318 201.392 90.307 201.48L90.1273 201.922C91.1175 201.112 92.02 200.197 92.9977 199.365C93.8333 198.655 94.8485 197.807 95.9724 197.644C96.9877 197.498 97.8317 198.296 98.4375 199.015C99.0113 199.715 99.4031 200.546 99.5781 201.434C99.9959 203.523 99.4904 205.712 98.8344 207.701C97.9619 210.126 96.8624 212.464 95.5505 214.682C94.1884 217.106 92.6885 219.445 91.2053 221.785L92.1871 221.66C91.903 221.384 92.5757 220.895 92.7846 220.753C93.394 220.398 94.0573 220.146 94.7483 220.005C96.2148 219.617 97.5977 219.775 98.6297 220.958C99.5823 222.044 99.8455 223.523 99.8204 224.927C99.7332 226.576 99.5097 228.215 99.1519 229.828C97.8841 236.192 95.9444 242.403 93.3653 248.357C92.6634 250.012 91.9281 251.652 91.1593 253.279C90.6904 254.319 90.1588 255.329 89.5675 256.304C89.1497 256.989 90.2234 257.62 90.6496 256.939C91.2248 255.996 91.7424 255.02 92.1997 254.014C92.9823 252.36 93.7316 250.689 94.4474 249.001C95.8966 245.62 97.1684 242.165 98.2578 238.652C99.3387 235.165 100.176 231.608 100.765 228.006C101.253 224.944 101.5 220.958 98.3915 219.136C96.6869 218.137 94.6647 218.635 92.9392 219.307C91.7693 219.763 90.0145 221.313 91.3264 222.566C91.3952 222.632 91.4779 222.682 91.5684 222.712C91.6588 222.742 91.7548 222.751 91.8494 222.739C91.9439 222.727 92.0345 222.694 92.1146 222.642C92.1948 222.591 92.2624 222.522 92.3125 222.441C93.8876 219.934 95.4794 217.461 96.9083 214.879C98.3372 212.297 99.7118 209.51 100.472 206.602C101.095 204.233 101.337 201.567 100.167 199.32C99.6118 198.239 98.7595 197.339 97.7105 196.725C96.4822 196.048 95.1076 196.42 93.9712 197.097C92.6342 197.886 91.5103 199.002 90.3697 200.042C89.9017 200.46 88.9366 200.991 89.1162 201.714C89.2959 202.436 89.9519 202.549 90.5619 202.386C91.3306 202.156 91.7234 201.576 92.1412 200.932C92.6718 200.118 93.1773 199.282 93.6494 198.425C94.5885 196.724 95.4094 194.959 96.1061 193.144C96.8211 191.296 97.4006 189.399 97.84 187.466C98.3158 185.715 98.596 183.915 98.6756 182.102C98.6756 180.798 98.4041 179.236 97.3512 178.342C95.9223 177.138 94.2386 177.995 92.9016 178.876C89.1121 181.362 85.2056 183.681 81.32 186.017L81.0275 186.192L81.788 186.292C77.2715 182.068 76.0682 175.964 75.2785 170.09C75.078 168.611 74.8983 167.128 74.6811 165.649C74.5766 164.938 74.4638 164.228 74.3385 163.522C74.2944 163.102 74.1605 162.695 73.9458 162.331C73.4621 161.586 72.7768 160.993 71.9695 160.622C70.1521 159.816 68.1508 160.388 66.7303 161.7C64.5577 163.697 63.8056 166.89 63.5424 169.714C63.0327 175.145 64.2151 180.744 65.715 185.946C65.974 186.84 66.2526 187.732 66.5506 188.624L67.3194 187.851C64.6921 187.459 62.0369 187.286 59.3811 187.333C57.5863 187.348 55.8038 187.63 54.0917 188.168C51.9232 188.925 50.0598 190.45 49.8927 192.877C49.7423 195.108 50.979 197.26 52.3076 198.948C53.8502 200.911 55.7837 202.533 57.9856 203.711C59.8323 204.688 62.1637 205.482 64.2527 204.839C64.4991 204.763 64.7394 204.668 64.9713 204.555C65.5479 204.279 65.2471 203.385 64.6538 203.389C60.7849 203.414 56.6027 203.694 53.0722 205.428C51.05 206.418 49.312 208.093 49.0237 210.421C48.7521 212.652 49.8593 214.787 51.2255 216.483C53.0715 218.685 55.3459 220.489 57.9104 221.785C61.4025 223.611 65.2144 224.746 69.1368 225.127C69.8346 225.198 69.9975 224.029 69.3039 223.895C66.1662 223.289 62.2347 222.913 59.4646 224.885C57.2544 226.456 56.6695 229.101 57.0539 231.666C57.5636 235.071 59.4772 238.196 61.5662 240.858C64.5057 244.488 68.037 247.595 72.0113 250.049C76.8565 253.103 82.1688 255.343 87.7375 256.68C88.4937 256.868 89.2583 257.035 90.0229 257.19C90.7875 257.344 91.0549 256.174 90.261 256.016Z" fill="#FFDFC8"/>
<path d="M90.2237 254.495C84.681 253.405 79.3498 251.43 74.4348 248.646C70.371 246.373 66.7024 243.456 63.5719 240.01C61.299 237.457 59.2309 234.465 58.3159 231.131C57.7184 228.946 57.6725 226.385 59.3019 224.714C61.3032 222.662 64.7334 222.696 67.3697 223.042C67.8878 223.109 68.4017 223.197 68.9156 223.297L69.0409 222.374C63.0997 221.768 56.7825 219.353 52.6463 214.904C51.3051 213.458 50.0433 211.59 49.9765 209.556C49.918 207.609 51.1422 206.08 52.7674 205.106C54.1974 204.307 55.7507 203.752 57.3633 203.464C59.7366 203.008 62.1495 202.788 64.5662 202.808L64.3281 201.935C63.5701 202.259 62.7377 202.369 61.9215 202.252C60.9533 202.121 60.0117 201.839 59.1306 201.417C57.0396 200.42 55.1743 199.007 53.649 197.264C52.3496 195.793 51.0878 193.871 50.9249 191.958C50.8262 191.147 50.9981 190.326 51.4137 189.622C51.9564 188.814 52.7272 188.186 53.6281 187.817C54.9961 187.247 56.4514 186.913 57.9315 186.831C60.2122 186.668 62.5032 186.715 64.7751 186.973C65.5063 187.044 66.2375 187.132 66.9644 187.232C67.2903 187.274 67.6622 187.032 67.541 186.652C65.7946 181.22 64.3532 175.505 64.4869 169.768C64.5537 166.915 65.0091 163.58 66.9268 161.337C67.4776 160.661 68.1988 160.145 69.0159 159.841C69.6896 159.6 70.4238 159.589 71.1049 159.808C71.763 160.029 72.3433 160.435 72.7761 160.978C73.3234 161.679 73.3193 162.649 73.4529 163.522C73.6744 164.951 73.8708 166.384 74.0421 167.821C74.7816 173.42 75.7133 179.282 79.4276 183.773C79.9021 184.343 80.4114 184.883 80.9526 185.39C81.3954 185.808 82.0597 185.139 81.6169 184.721C77.0711 180.489 75.8595 174.364 75.0657 168.46C74.8651 166.981 74.6813 165.498 74.4682 164.019C74.3638 163.309 74.251 162.599 74.1256 161.893C74.0859 161.485 73.9576 161.092 73.7496 160.739C73.2793 160.017 72.6125 159.445 71.8277 159.089C70.0771 158.312 68.1468 158.88 66.7764 160.138C64.6373 162.11 63.8977 165.26 63.6387 168.043C63.129 173.474 64.3072 179.043 65.8071 184.233C66.0662 185.127 66.3447 186.019 66.6427 186.911L67.2235 186.334C64.6061 185.942 61.9605 185.77 59.3144 185.82C57.5333 185.836 55.7646 186.117 54.0668 186.656C51.9778 187.387 50.1436 188.862 49.9848 191.214C49.8344 193.399 51.0502 195.517 52.3538 197.176C53.8877 199.129 55.8096 200.742 57.9983 201.914C59.8116 202.871 62.0845 203.656 64.1359 203.025C64.3675 202.952 64.5937 202.863 64.8127 202.758C65.2305 202.549 65.0175 201.876 64.5746 201.881C60.735 201.906 56.5778 202.181 53.0724 203.899C51.1046 204.864 49.379 206.489 49.1033 208.758C48.8359 210.947 49.9389 213.044 51.255 214.707C53.0934 216.902 55.3612 218.698 57.919 219.984C61.3842 221.807 65.1695 222.942 69.066 223.327C69.5924 223.381 69.7094 222.491 69.1913 222.403C66.0954 221.806 62.2098 221.43 59.4732 223.377C57.3257 224.906 56.7616 227.492 57.1335 229.982C57.639 233.358 59.5317 236.467 61.6082 239.103C64.5339 242.732 68.0528 245.84 72.0157 248.295C76.8483 251.341 82.1463 253.576 87.7001 254.913C88.4605 255.096 89.2251 255.268 89.9897 255.418C90.5788 255.539 90.8253 254.633 90.2404 254.512L90.2237 254.495Z" fill="#E47477"/>
<path d="M83.5809 187.997L91.1849 182.958L93.0859 181.705C93.6539 181.27 94.2743 180.907 94.9326 180.627C95.9855 180.268 96.8128 180.798 97.193 181.78C97.5048 182.691 97.6006 183.662 97.4729 184.617C97.3237 185.95 97.0991 187.274 96.8002 188.582C96.2214 191.221 95.3817 193.796 94.2934 196.27C93.6751 197.665 92.9776 199.023 92.2044 200.339C91.8367 200.971 91.4509 201.592 91.0471 202.202C90.9166 202.457 90.7345 202.682 90.5123 202.863C90.4245 202.921 90.3076 202.946 90.224 203C90.1716 203.019 90.1167 203.031 90.061 203.034C89.9733 203.034 90.0026 203.034 90.1446 203.126L90.0067 203.456C91.0011 202.645 91.9036 201.734 92.877 200.903C93.7419 200.163 94.7948 199.29 95.9646 199.132C97.0217 198.989 97.9032 199.796 98.5425 200.548C99.1362 201.273 99.5409 202.135 99.7207 203.055C100.164 205.144 99.6413 207.387 98.977 209.384C98.1062 211.841 97.0053 214.209 95.6889 216.458C94.3268 218.881 92.8269 221.221 91.3395 223.561L92.079 223.465C91.6905 223.097 92.3548 222.562 92.6473 222.353C93.2271 221.998 93.8628 221.744 94.5274 221.601C95.902 221.208 97.3267 221.183 98.4297 222.219C100.661 224.308 99.9756 227.768 99.5076 230.429C98.4279 236.359 96.7379 242.161 94.4647 247.743C93.2113 250.927 91.7866 254.048 90.2867 257.127C90.0234 257.666 90.834 258.142 91.1014 257.599C94.1748 251.451 96.6917 245.04 98.6219 238.443C99.58 235.14 100.295 231.772 100.761 228.365C101.12 225.579 100.761 221.977 97.8071 220.715C96.2028 220.03 94.2266 220.536 92.7058 221.233C91.7072 221.689 90.2867 223.059 91.4022 224.133C91.4536 224.182 91.5154 224.219 91.583 224.241C91.6506 224.263 91.7223 224.27 91.7928 224.261C91.8634 224.252 91.9309 224.227 91.9906 224.188C92.0502 224.149 92.1004 224.098 92.1375 224.037C94.895 219.688 97.7737 215.309 99.5745 210.458C101.024 206.556 101.81 201.475 97.9032 198.73C95.7306 197.205 93.3074 199.269 91.6988 200.69C91.1891 201.141 90.6919 201.609 90.1864 202.065C89.7978 202.415 89.0667 202.783 89.2212 203.393C89.5221 204.571 91.1139 203.74 91.5484 203.142C93.478 200.378 95.024 197.365 96.1443 194.185C97.3297 191.071 98.0996 187.815 98.4339 184.5C98.6177 182.365 97.8113 178.968 94.9494 179.658C94.1355 179.917 93.3734 180.318 92.6974 180.84L90.2783 182.444L85.5237 185.595L83.1046 187.199C82.6032 187.529 83.0712 188.344 83.5809 188.01V187.997Z" fill="#E47477"/>
<path d="M70.5033 173.691C70.5033 173.691 77.606 210.876 88.8867 255.163" stroke="#201C53" stroke-width="2" stroke-linecap="round" stroke-linejoin="round"/>
<path d="M76.1439 201.058L85.5445 189.568" stroke="#201C53" stroke-width="2" stroke-linecap="round" stroke-linejoin="round"/>
<path d="M80.2549 219.508L93.4826 206.698" stroke="#201C53" stroke-width="2" stroke-linecap="round" stroke-linejoin="round"/>
<path d="M85.7534 242.42L93.9006 229.677" stroke="#201C53" stroke-width="2" stroke-linecap="round" stroke-linejoin="round"/>
<path d="M83.3133 234.804L67.5787 232.184" stroke="#201C53" stroke-width="2" stroke-linecap="round" stroke-linejoin="round"/>
<path d="M78.6087 212.685L62.9828 210.876" stroke="#201C53" stroke-width="2" stroke-linecap="round" stroke-linejoin="round"/>
<path d="M74.6106 195.981L60.894 194.164" stroke="#201C53" stroke-width="2" stroke-linecap="round" stroke-linejoin="round"/>
<path d="M67.6206 237.507C72.4797 226.126 66.3672 221.213 54.3595 225.361C47.1148 207.814 26.0114 204.931 40.7892 229.498C34.9399 229.347 29.4834 241.56 45.2723 244.773C38.7503 256.826 59.745 258.518 68.285 257.499L72.1204 254.24C72.9727 250.196 75.8974 234.089 67.6206 237.507Z" fill="#F5B2A9"/>
<path d="M46.6841 225.595C46.6841 225.595 61.3073 249.41 68.8278 255.259" stroke="#201C53" stroke-width="2" stroke-linecap="round" stroke-linejoin="round"/>
<path d="M53.2353 236.859L42.0883 236.04" stroke="#201C53" stroke-width="2" stroke-linecap="round" stroke-linejoin="round"/>
<path d="M56.7617 239.922L61.7252 229.773" stroke="#201C53" stroke-width="2" stroke-linecap="round" stroke-linejoin="round"/>
<path d="M62.8824 249.803L51.6978 249.828" stroke="#201C53" stroke-width="2" stroke-linecap="round" stroke-linejoin="round"/>
<path d="M64.9967 251.211L68.828 243.561" stroke="#201C53" stroke-width="2" stroke-linecap="round" stroke-linejoin="round"/>
<path d="M68.2973 256.881C63.9816 257.368 59.6176 257.219 55.3453 256.438C53.1795 256.096 51.0708 255.46 49.0782 254.545C47.5156 253.785 45.9907 252.736 45.1968 251.161C44.2192 249.231 44.8542 246.983 45.8528 245.098C45.9001 245.015 45.928 244.922 45.9341 244.827C45.9403 244.732 45.9247 244.636 45.8885 244.547C45.8523 244.459 45.7964 244.38 45.725 244.316C45.6537 244.252 45.5688 244.205 45.4768 244.179C41.8962 243.44 37.2418 241.873 35.9132 238.05C35.5356 236.901 35.4988 235.666 35.8072 234.497C36.1156 233.327 36.7561 232.271 37.6513 231.457C38.0967 231.045 38.6061 230.708 39.1595 230.459C39.6862 230.23 40.2566 230.118 40.8308 230.133C40.9406 230.131 41.0481 230.101 41.1427 230.045C41.2373 229.989 41.3157 229.91 41.3701 229.815C41.4246 229.719 41.4532 229.611 41.4531 229.501C41.453 229.392 41.4243 229.284 41.3697 229.188C39.3141 225.762 37.292 222.052 36.5274 218.083C36.3015 217.023 36.2676 215.93 36.4271 214.858C36.5315 214.133 36.8792 213.466 37.4131 212.965C37.9054 212.57 38.5053 212.333 39.1345 212.284C40.0057 212.221 40.8804 212.345 41.6998 212.648C43.981 213.383 46.0659 214.92 47.7998 216.6C50.3687 219.149 52.3953 222.192 53.7577 225.545C53.8078 225.7 53.9155 225.83 54.0586 225.908C54.2017 225.985 54.3691 226.005 54.5264 225.963C57.7937 224.843 61.7586 223.824 65.1429 225.052C66.2437 225.428 67.1857 226.164 67.8168 227.141C68.4662 228.31 68.7569 229.644 68.6524 230.977C68.5054 233.119 67.9703 235.217 67.0731 237.169C66.8893 237.586 67.2068 238.322 67.7792 238.088C68.4042 237.803 69.0811 237.649 69.7679 237.636C70.2387 237.638 70.695 237.798 71.0631 238.092C71.4077 238.395 71.6852 238.766 71.8779 239.182C72.1336 239.745 72.3175 240.337 72.4252 240.945C73.0101 243.916 72.6424 247.121 72.2121 250.087C72.0171 251.416 71.7818 252.736 71.506 254.048C71.3389 254.833 72.5505 255.168 72.7135 254.378C73.346 251.499 73.7442 248.573 73.9042 245.629C74.0111 243.966 73.9228 242.296 73.641 240.653C73.3987 239.4 72.9349 238.029 71.9197 237.181C70.6245 236.103 68.9198 236.279 67.4491 236.88L68.1552 237.799C69.5423 234.524 70.8208 230.358 69.1287 226.936C67.7082 224.07 64.4159 223.176 61.4453 223.256C58.9657 223.376 56.5187 223.871 54.188 224.726L54.9568 225.144C53.6189 221.89 51.6926 218.91 49.2746 216.353C47.4149 214.32 45.1334 212.717 42.5897 211.657C40.8642 210.985 38.654 210.617 36.9995 211.687C35.2113 212.848 34.8812 215.138 35.0859 217.118C35.3109 218.959 35.7889 220.76 36.5065 222.47C37.5518 225.022 38.8023 227.486 40.2458 229.836L40.789 228.896C38.0189 228.846 35.7419 231.048 34.7851 233.492C33.5735 236.6 34.7392 239.939 37.246 242.019C39.4729 243.87 42.3098 244.827 45.1049 245.403L44.7331 244.484C43.7094 246.394 43.0159 248.662 43.6635 250.793C44.2317 252.661 45.6773 254.06 47.3067 255.046C49.2924 256.177 51.4507 256.973 53.695 257.403C56.1378 257.923 58.6199 258.237 61.1152 258.343C63.5109 258.47 65.913 258.401 68.2973 258.134C69.0911 258.042 69.0995 256.784 68.2973 256.881Z" fill="#FFDFC8"/>
<path d="M93.9006 324.101H69.6679L60.4762 259.342H103.092L93.9006 324.101Z" fill="#F5B2A9"/>
<path d="M104.893 262.086L58.7169 260.946L57.9398 253.881H104.893V262.086Z" fill="#E47477"/>
<path d="M514.617 116.916C513.907 116.71 513.171 116.605 512.432 116.603C514.103 113.335 514.421 108.602 512.929 103.809C510.723 96.7067 505.367 91.9813 500.52 92.5286C500.759 89.6291 499.493 86.0735 496.856 83.057C493.317 79.0085 488.5 77.2578 485.158 78.5656C482.12 75.8749 476.221 75.9501 470.894 79.0293C465.567 82.1086 462.538 87.164 463.373 91.1457C459.433 92.491 455.644 95.3697 452.903 99.5018C448.725 105.823 448.157 113.264 450.965 118.466C448.985 119.735 447.343 121.465 446.181 123.509C442.613 129.684 443.966 137.142 449.206 140.163C451.034 141.207 453.154 141.628 455.243 141.362C457.136 146.793 462.655 151.92 470.129 154.447C473.981 155.781 478.083 156.233 482.133 155.772C486.039 158.784 492.891 158.696 499.037 155.133C502.689 153.044 505.409 150.09 506.884 147.031C512.445 147.917 518.519 142.732 520.788 134.915C523.186 126.672 520.425 118.608 514.617 116.916Z" fill="#201C53"/>
<path d="M460.992 118.002C463.876 118.002 466.214 115.664 466.214 112.78C466.214 109.895 463.876 107.557 460.992 107.557C458.108 107.557 455.769 109.895 455.769 112.78C455.769 115.664 458.108 118.002 460.992 118.002Z" fill="#FF624D"/>
<path d="M464.364 106.138C464.775 103.868 463.911 101.81 462.435 101.544C460.959 101.277 459.43 102.901 459.019 105.172C458.609 107.442 459.472 109.499 460.948 109.766C462.424 110.033 463.954 108.409 464.364 106.138Z" fill="#E69F96"/>
<path d="M484.598 82.071C484.598 82.071 466.214 77.0573 461.201 97.5298C456.187 118.002 466.632 125.941 466.632 125.941C466.632 125.941 473.735 128.03 484.598 115.913C495.461 103.797 497.968 86.6668 484.598 82.071Z" fill="#E69F96"/>
<path d="M469.975 102.543C469.975 102.543 468.304 108.811 467.468 110.064C466.632 111.317 466.632 111.192 466.215 111.317C465.797 111.443 464.961 112.153 466.215 112.989C466.96 113.488 467.826 113.777 468.721 113.824" stroke="#C9676E" stroke-miterlimit="10"/>
<path d="M494.676 106.828C495.83 104.829 495.712 102.602 494.413 101.852C493.115 101.102 491.126 102.114 489.973 104.112C488.819 106.11 488.937 108.338 490.235 109.088C491.534 109.838 493.523 108.826 494.676 106.828Z" fill="#E69F96"/>
<path d="M523.454 350.302L520.266 347.841L513.389 294.901C512.996 291.876 512.489 288.868 511.868 285.876L504.013 231.273C504.018 231.196 504.018 231.117 504.013 231.039C503.282 212.857 493.004 198.451 480.433 198.451C467.861 198.451 457.583 212.865 456.847 231.039C456.842 231.245 456.864 231.45 456.914 231.649C456.914 231.733 456.914 231.812 456.914 231.896L457.645 293.907C457.651 294.465 457.687 295.023 457.754 295.578L465.375 347.519L463.286 351.56L466.21 354.902L473.163 354.693H485.221L477.934 299.651C477.5 296.38 477.282 293.083 477.282 289.783L480.282 240.875C486.131 260.578 494.905 286.227 496.501 294.529C501.933 322.94 504.857 354.693 504.857 354.693H521.152L521.093 354.238L523.454 350.302Z" fill="#FF624D"/>
<path d="M466.633 354.48L465.379 365.343L454.934 374.117L472.9 372.863L481.256 364.089L485.016 373.281H487.105L485.434 354.48H466.633Z" fill="#E2214C"/>
<path d="M522.619 354.48L523.872 365.343L534.317 374.117L516.352 372.863L507.996 364.089L504.235 373.281H502.146L503.817 354.48H522.619Z" fill="#E2214C"/>
<path opacity="0.2" d="M423.72 401.441C491.95 401.441 547.261 384.606 547.261 363.839C547.261 343.072 491.95 326.236 423.72 326.236C355.49 326.236 300.179 343.072 300.179 363.839C300.179 384.606 355.49 401.441 423.72 401.441Z" fill="#E47477"/>
<path d="M464.753 146.622C464.753 146.622 462.664 190.491 450.13 196.341C437.595 202.19 412.945 200.936 409.185 199.683L410.02 192.163C410.02 192.163 444.698 192.998 446.787 184.224C448.876 175.45 451.383 159.156 452.636 147.875L464.753 146.622Z" fill="#E69F96"/>
<path d="M410.02 192.163C410.02 192.163 404.171 191.327 399.575 192.163C394.979 192.998 387.876 195.505 387.459 196.341C387.041 197.176 390.383 196.758 390.383 196.758C390.383 196.758 385.37 198.43 385.37 198.847C385.37 199.265 384.952 199.683 386.205 199.683C387.459 199.683 392.054 198.43 392.054 198.43C392.054 198.43 385.787 200.101 385.787 201.354C385.787 202.608 395.815 200.101 396.65 199.683C397.486 199.265 400.411 198.847 400.411 199.683C400.411 200.519 399.575 205.114 401.246 204.697C402.917 204.279 402.5 200.101 404.171 199.683C405.842 199.265 409.184 199.683 409.184 199.683L410.02 192.163Z" fill="#F5B2A9"/>
<path d="M469.065 141.455L455.284 142.018L446.565 163.752H470.184L469.065 141.455Z" fill="#E2214C"/>
<path d="M469.91 163.674H446.285V167.049H469.91V163.674Z" fill="#BC214C"/>
<path d="M507.285 138.796L486.336 129.508C485.434 129.108 484.458 128.901 483.47 128.901C482.483 128.901 481.506 129.108 480.604 129.508L458.565 139.323C457.322 139.878 456.266 140.781 455.525 141.922C454.784 143.064 454.388 144.396 454.387 145.757L454.332 169.572C454.217 169.871 454.163 170.191 454.174 170.512C454.892 188.252 453.313 202.562 473.919 204.463H474.019C475.528 204.596 477.145 204.667 478.895 204.667C498.031 204.667 502.585 190.424 503.546 172.154C504.085 170.824 504.527 169.457 504.87 168.063L511.296 146.906C511.684 145.298 511.495 143.605 510.762 142.123C510.029 140.641 508.798 139.463 507.285 138.796Z" fill="#E2214C"/>
<path d="M478.749 182.762C478.749 182.762 476.66 183.18 473.736 186.522" stroke="#FF624D" stroke-width="1.19" stroke-miterlimit="10"/>
<path d="M485.852 114.869C485.852 110.831 482.578 107.557 478.54 107.557C474.502 107.557 471.228 110.831 471.228 114.869V134.088C471.228 138.126 474.502 141.399 478.54 141.399C482.578 141.399 485.852 138.126 485.852 134.088V114.869Z" fill="#E69F96"/>
<path d="M475.406 165.214L471.228 134.714H485.852L475.406 165.214Z" fill="#E69F96"/>
<path d="M467.886 96.6943C467.886 96.6943 465.379 97.1121 464.543 97.5299C463.708 97.9477 463.29 99.2011 464.961 99.2011C466.632 99.2011 468.721 98.7833 469.557 97.9477C470.393 97.1121 468.721 96.2765 467.886 96.6943Z" fill="#201C53"/>
<path d="M480.002 97.5297C480.002 97.5297 477.078 97.1119 476.66 97.9475C476.242 98.7832 476.66 99.201 477.913 99.201C479.003 99.2722 480.035 99.7145 480.838 100.454C481.256 100.872 482.927 100.454 482.091 99.201C481.581 98.4448 480.852 97.8619 480.002 97.5297Z" fill="#201C53"/>
<path d="M477.913 102.334C477.913 101.988 477.633 101.708 477.287 101.708C476.94 101.708 476.66 101.988 476.66 102.334V103.588C476.66 103.934 476.94 104.215 477.287 104.215C477.633 104.215 477.913 103.934 477.913 103.588V102.334Z" fill="#201C53"/>
<path d="M465.379 102.334C465.379 101.988 465.099 101.708 464.753 101.708C464.406 101.708 464.126 101.988 464.126 102.334V103.588C464.126 103.934 464.406 104.215 464.753 104.215C465.099 104.215 465.379 103.934 465.379 103.588V102.334Z" fill="#201C53"/>
<path d="M469.975 117.167C469.975 117.167 470.393 118.002 471.646 117.584C472.9 117.167 473.317 116.749 473.735 116.749C474.153 116.749 472.482 118.42 471.228 118.838C471.064 118.896 470.889 118.921 470.715 118.91C470.541 118.9 470.371 118.854 470.215 118.776C470.059 118.698 469.92 118.589 469.807 118.456C469.694 118.323 469.609 118.169 469.557 118.002C469.557 118.002 469.139 117.167 469.975 117.167Z" fill="#C9676E"/>
<path d="M489.612 120.509C492.842 120.509 495.461 117.89 495.461 114.66C495.461 111.429 492.842 108.81 489.612 108.81C486.381 108.81 483.762 111.429 483.762 114.66C483.762 117.89 486.381 120.509 489.612 120.509Z" fill="#FF624D"/>
<path d="M497.132 94.6051C495.879 91.6805 493.372 85.4134 488.776 82.071C488.147 81.5766 487.41 81.2383 486.625 81.0836C485.84 80.9289 485.029 80.9623 484.26 81.181C483.955 80.2869 482.651 79.7396 479.585 79.9819C469.139 80.8175 463.708 85.8312 463.708 85.8312C463.708 85.8312 451.592 96.6941 463.708 95.8585C471.391 95.3279 476.919 91.2627 480.236 87.8158C480.733 91.4381 482.229 96.8905 486.687 100.037C493.79 105.05 497.55 99.201 497.55 99.201C497.55 99.201 498.386 97.5297 497.132 94.6051Z" fill="#201C53"/>
<path d="M470.877 137.046C470.888 136.694 470.809 136.345 470.648 136.031C470.488 135.718 470.251 135.45 469.959 135.253C469.667 135.056 469.33 134.935 468.979 134.903C468.628 134.871 468.275 134.928 467.953 135.069L458.573 139.331C457.33 139.886 456.274 140.789 455.533 141.931C454.792 143.072 454.396 144.404 454.395 145.765L452.678 215.154C452.665 215.683 452.853 216.196 453.204 216.592L463.436 228.052C463.714 228.354 464.075 228.567 464.473 228.665C464.871 228.763 465.29 228.742 465.676 228.604C466.063 228.466 466.4 228.217 466.645 227.889C466.891 227.56 467.035 227.166 467.058 226.757L470.877 137.046Z" fill="#5831C2"/>
<path d="M488.922 132.671C488.929 132.459 488.988 132.252 489.094 132.068C489.2 131.884 489.349 131.729 489.529 131.616C489.709 131.503 489.914 131.437 490.126 131.422C490.338 131.407 490.55 131.444 490.744 131.531L507.36 138.913C508.602 139.469 509.658 140.371 510.399 141.513C511.141 142.655 511.536 143.986 511.538 145.348L508.663 215.351C508.655 215.546 508.603 215.737 508.511 215.91C508.419 216.083 508.29 216.233 508.133 216.349L486.261 232.251C486.206 232.291 486.141 232.314 486.073 232.319C486.005 232.324 485.937 232.31 485.877 232.278C485.817 232.246 485.767 232.198 485.733 232.14C485.699 232.081 485.682 232.014 485.684 231.946L488.922 132.671Z" fill="#5831C2"/>
<path d="M500.683 173.153C500.683 175.424 499.781 177.603 498.175 179.209C496.568 180.815 494.39 181.718 492.118 181.718" stroke="#201C53" stroke-width="1.19" stroke-miterlimit="10"/>
<path d="M470.359 127.779C470.245 127.819 470.141 127.883 470.054 127.967C469.268 128.769 465.128 133.052 464.752 134.94C464.334 137.029 467.259 137.865 467.259 137.865L468.512 186.748L471.366 128.556C471.373 128.431 471.35 128.306 471.298 128.191C471.247 128.077 471.168 127.977 471.068 127.901C470.969 127.824 470.852 127.773 470.729 127.752C470.605 127.73 470.478 127.74 470.359 127.779Z" fill="#5831C2" stroke="#201C53" stroke-miterlimit="10"/>
<path d="M487.234 127.361C487.347 127.403 487.448 127.47 487.531 127.557C488.291 128.393 492.298 132.784 492.62 134.685C492.975 136.774 490.025 137.535 490.025 137.535L487.301 186.359L486.202 128.105C486.199 127.979 486.226 127.855 486.282 127.742C486.337 127.63 486.419 127.533 486.521 127.46C486.623 127.386 486.741 127.339 486.865 127.322C486.99 127.305 487.116 127.318 487.234 127.361Z" fill="#5831C2" stroke="#201C53" stroke-miterlimit="10"/>
<path d="M500.224 159.574H491.951C491.713 159.546 491.493 159.433 491.332 159.255C491.171 159.078 491.079 158.848 491.074 158.609V153.265C491.071 153.153 491.093 153.041 491.137 152.938C491.181 152.835 491.248 152.743 491.331 152.668C491.414 152.593 491.513 152.537 491.62 152.504C491.727 152.471 491.84 152.461 491.951 152.475H500.224C500.462 152.504 500.681 152.618 500.842 152.795C501.003 152.972 501.095 153.201 501.101 153.44V158.792C501.103 158.904 501.08 159.014 501.035 159.116C500.991 159.218 500.924 159.309 500.841 159.384C500.758 159.458 500.66 159.513 500.553 159.546C500.447 159.579 500.334 159.588 500.224 159.574Z" fill="#F7F5ED"/>
<path d="M501.101 153.018L496.088 156.649L491.074 152.843" stroke="#E47477" stroke-miterlimit="10"/>
<path d="M494.784 155.667L491.538 159.302" stroke="#E47477" stroke-miterlimit="10"/>
<path d="M497.387 155.667L500.633 159.302" stroke="#E47477" stroke-miterlimit="10"/>
<path d="M470.877 137.046C470.888 136.694 470.809 136.345 470.648 136.031C470.488 135.718 470.251 135.45 469.959 135.253C469.667 135.056 469.33 134.935 468.979 134.903C468.628 134.871 468.275 134.928 467.953 135.069L458.573 139.331C457.33 139.886 456.274 140.789 455.533 141.931C454.792 143.072 454.396 144.404 454.395 145.765L452.678 215.154C452.665 215.683 452.853 216.196 453.204 216.592L463.436 228.052C463.714 228.354 464.075 228.567 464.473 228.665C464.871 228.763 465.29 228.742 465.676 228.604C466.063 228.466 466.4 228.217 466.645 227.889C466.891 227.56 467.035 227.166 467.058 226.757L470.877 137.046Z" fill="#5831C2"/>
<path d="M488.922 132.671C488.929 132.459 488.988 132.252 489.094 132.068C489.2 131.884 489.349 131.729 489.529 131.616C489.709 131.503 489.914 131.437 490.126 131.422C490.338 131.407 490.55 131.444 490.744 131.531L507.36 138.913C508.602 139.469 509.658 140.371 510.399 141.513C511.141 142.655 511.536 143.986 511.538 145.348L508.663 215.351C508.655 215.546 508.603 215.737 508.511 215.91C508.419 216.083 508.29 216.233 508.133 216.349L486.261 232.251C486.206 232.291 486.141 232.314 486.073 232.319C486.005 232.324 485.937 232.31 485.877 232.278C485.817 232.246 485.767 232.198 485.733 232.14C485.699 232.081 485.682 232.014 485.684 231.946L488.922 132.671Z" fill="#5831C2"/>
<path d="M500.683 173.153C500.683 175.424 499.781 177.603 498.175 179.209C496.568 180.815 494.39 181.718 492.118 181.718" stroke="#201C53" stroke-width="1.19" stroke-miterlimit="10"/>
<path d="M470.359 127.779C470.245 127.819 470.141 127.883 470.054 127.967C469.268 128.769 465.128 133.052 464.752 134.94C464.334 137.029 467.259 137.865 467.259 137.865L468.512 186.748L471.366 128.556C471.373 128.431 471.35 128.306 471.298 128.191C471.247 128.077 471.168 127.977 471.068 127.901C470.969 127.824 470.852 127.773 470.729 127.752C470.605 127.73 470.478 127.74 470.359 127.779Z" fill="#5831C2" stroke="#201C53" stroke-miterlimit="10"/>
<path d="M487.234 127.361C487.347 127.403 487.448 127.47 487.531 127.557C488.291 128.393 492.298 132.784 492.62 134.685C492.975 136.774 490.025 137.535 490.025 137.535L487.301 186.359L486.202 128.105C486.199 127.979 486.226 127.855 486.282 127.742C486.337 127.63 486.419 127.533 486.521 127.46C486.623 127.386 486.741 127.339 486.865 127.322C486.99 127.305 487.116 127.318 487.234 127.361Z" fill="#5831C2" stroke="#201C53" stroke-miterlimit="10"/>
<path d="M500.224 159.574H491.951C491.713 159.546 491.493 159.433 491.332 159.255C491.171 159.078 491.079 158.848 491.074 158.609V153.265C491.071 153.153 491.093 153.041 491.137 152.938C491.181 152.835 491.248 152.743 491.331 152.668C491.414 152.593 491.513 152.537 491.62 152.504C491.727 152.471 491.84 152.461 491.951 152.475H500.224C500.462 152.504 500.681 152.618 500.842 152.795C501.003 152.972 501.095 153.201 501.101 153.44V158.792C501.103 158.904 501.08 159.014 501.035 159.116C500.991 159.218 500.924 159.309 500.841 159.384C500.758 159.458 500.66 159.513 500.553 159.546C500.447 159.579 500.334 159.588 500.224 159.574Z" fill="#F7F5ED"/>
<path d="M501.101 153.018L496.088 156.649L491.074 152.843" stroke="#E47477" stroke-miterlimit="10"/>
<path d="M494.784 155.667L491.538 159.302" stroke="#E47477" stroke-miterlimit="10"/>
<path d="M497.387 155.667L500.633 159.302" stroke="#E47477" stroke-miterlimit="10"/>
<path d="M211.491 239.12C211.491 238.928 211.491 238.74 211.491 238.552C211.547 238.312 211.575 238.066 211.575 237.82C211.575 206.577 208.028 197.594 182.612 197.594C167.154 197.594 153.654 207.83 153.654 237.82C153.655 238.082 153.685 238.343 153.746 238.597L150.27 294.901C149.506 298.014 150.554 301.168 150.074 304.302L153.487 367.014L169.318 363.672C169.318 363.672 164.137 333.523 170.805 303.925C172.631 295.837 173.312 260.474 182.433 252.218L193.158 299.401C193.158 302.839 194.754 306.779 194.223 310.184L196.73 349.316L195.895 361.156L197.566 362.828L197.474 360.647L197.612 362.819L214.015 361.148L217.148 305.434C217.23 304.854 217.275 304.269 217.282 303.683L211.491 239.12Z" fill="#201C53"/>
<path opacity="0.2" d="M188.742 395.174C231.135 395.174 265.501 389.843 265.501 383.267C265.501 376.69 231.135 371.359 188.742 371.359C146.349 371.359 111.983 376.69 111.983 383.267C111.983 389.843 146.349 395.174 188.742 395.174Z" fill="#E47477"/>
<path d="M197.566 362.836L198.401 377.459L206.757 378.295L208.428 377.041L210.935 379.13C210.935 379.13 225.976 380.802 228.483 380.384C230.99 379.966 228.483 375.788 228.483 375.788L213.442 361.165L197.566 362.836Z" fill="#FF914F"/>
<path d="M169.155 363.672C169.155 363.672 174.169 375.788 174.169 377.877C174.169 379.966 173.333 389.158 170.826 389.575C168.319 389.993 159.545 381.219 159.545 381.219L156.621 376.623L154.114 375.37V367.014L169.155 363.672Z" fill="#FF914F"/>
<path d="M187.538 224.96L186.703 249.193" stroke="#5831C2" stroke-miterlimit="10"/>
<path d="M179.6 255.661C179.6 255.661 180.853 250.446 191.299 247.522" stroke="#5831C2" stroke-miterlimit="10"/>
<path d="M212.607 138.474C212.607 138.474 215.532 171.063 218.456 178.584C221.381 186.104 224.306 191.954 229.737 193.625L223.47 202.399C223.47 202.399 213.86 201.145 209.682 195.714C205.504 190.282 203.833 180.255 202.997 173.57C202.162 166.885 196.73 141.817 196.73 141.817L212.607 138.474Z" fill="#E69F96"/>
<path d="M204.46 147.574C208.959 147.574 212.607 144.134 212.607 139.891C212.607 135.648 208.959 132.208 204.46 132.208C199.96 132.208 196.312 135.648 196.312 139.891C196.312 144.134 199.96 147.574 204.46 147.574Z" fill="#F5B2A9"/>
<path d="M229.737 193.625C229.737 193.625 233.079 194.878 234.751 194.461C236.422 194.043 243.107 194.043 244.36 193.625C245.613 193.207 247.285 192.789 247.702 193.625C248.12 194.461 246.031 196.55 244.778 196.55C243.524 196.55 240.6 196.55 240.6 197.385C240.6 198.221 246.031 201.563 247.702 202.399C249.374 203.234 255.223 206.577 255.223 206.577C255.223 206.577 256.476 209.501 253.552 208.666C250.627 207.83 246.867 205.323 246.867 205.323C246.867 205.323 252.716 212.008 252.716 212.426C252.716 212.844 253.134 215.351 250.627 213.68C248.12 212.008 244.36 206.995 244.36 206.995L246.031 211.591C246.031 211.591 246.031 214.097 244.36 212.844C242.689 211.591 239.442 208.077 237.257 206.995C233.998 205.386 230.99 206.159 223.47 202.399L229.737 193.625Z" fill="#E69F96"/>
<path d="M195.839 174.255L220.725 166.486L212.287 137.729L184.525 137.729L195.839 174.255Z" fill="#BC214C"/>
<path d="M197.331 179.091L222.269 171.367L220.772 166.534L195.834 174.258L197.331 179.091Z" fill="#E2214C"/>
<path d="M212.26 139.774C212.257 138.221 211.805 136.702 210.958 135.401C210.112 134.099 208.907 133.07 207.489 132.437L180.686 126.011C179.658 125.554 178.545 125.318 177.419 125.318C176.293 125.318 175.18 125.554 174.152 126.011L146.088 140.188C142.52 141.771 138.095 147.767 139.023 151.556L154.95 173.157C155.059 173.343 155.185 173.519 155.326 173.683C156.274 195.104 161.233 211.987 183.481 211.987C212.937 211.987 210.789 194.761 211.667 173.031C211.682 172.677 211.627 172.323 211.504 171.991L212.26 139.774Z" fill="#BC214C"/>
<path d="M185.449 100.663C185.449 95.7022 181.427 91.6804 176.466 91.6804C171.505 91.6804 167.484 95.7022 167.484 100.663V130.745C167.484 135.706 171.505 139.728 176.466 139.728C181.427 139.728 185.449 135.706 185.449 130.745V100.663Z" fill="#F5B2A9"/>
<path d="M167.484 130.745V126.705C167.484 126.705 162.261 128.656 163.932 133.252C165.604 137.848 172.288 145.368 172.288 145.368L176.467 139.937L176.32 139.724C173.964 139.686 171.717 138.723 170.064 137.043C168.411 135.364 167.484 133.102 167.484 130.745Z" fill="#E2214C"/>
<path d="M188.374 130.118C187.956 125.523 185.449 125.314 185.449 125.314V130.745C185.45 131.974 185.197 133.19 184.707 134.318C184.217 135.445 183.499 136.459 182.6 137.296L188.796 139.715C188.796 139.715 188.792 134.714 188.374 130.118Z" fill="#E2214C"/>
<path d="M180.699 138.671L184.613 152.68" stroke="#E2214C" stroke-miterlimit="10"/>
<path d="M179.391 145.577C179.968 145.577 180.436 145.11 180.436 144.533C180.436 143.956 179.968 143.488 179.391 143.488C178.814 143.488 178.347 143.956 178.347 144.533C178.347 145.11 178.814 145.577 179.391 145.577Z" stroke="#E2214C" stroke-miterlimit="10"/>
<path d="M181.063 151.427C181.639 151.427 182.107 150.959 182.107 150.382C182.107 149.805 181.639 149.338 181.063 149.338C180.486 149.338 180.018 149.805 180.018 150.382C180.018 150.959 180.486 151.427 181.063 151.427Z" stroke="#E2214C" stroke-miterlimit="10"/>
<path d="M193.805 187.358C193.805 187.358 187.956 194.043 187.12 199.892" stroke="#E2214C" stroke-miterlimit="10"/>
<path d="M138.655 151.427L157.039 156.858C157.039 156.858 153.696 174.824 159.546 192.372C165.395 209.853 203.833 206.995 203.833 206.995V218.275C203.833 218.275 170.513 226.811 151.19 212.008C131.553 196.967 138.655 151.427 138.655 151.427Z" fill="#F5B2A9"/>
<path d="M157.092 156.68C159.19 152.287 156.958 146.847 152.107 144.53C147.255 142.213 141.621 143.896 139.523 148.289C137.425 152.683 139.656 158.123 144.508 160.44C149.359 162.757 154.993 161.074 157.092 156.68Z" fill="#F5B2A9"/>
<path d="M203.833 206.995C203.833 206.995 219.292 204.07 220.963 203.652C220.963 203.652 237.257 198.639 238.511 199.056C239.764 199.474 239.53 199.85 239.138 200.101C236.84 201.563 230.573 202.817 230.573 202.817C230.573 202.817 241.018 200.31 242.271 200.728C243.525 201.145 242.689 202.399 242.689 202.399C242.689 202.399 234.751 204.906 231.408 206.159L233.079 207.412C233.079 207.412 234.751 211.173 233.915 211.591C233.079 212.008 230.155 215.351 225.977 215.351C221.799 215.351 222.634 213.68 222.634 213.68L203.833 218.275V206.995Z" fill="#F5B2A9"/>
<path d="M222.634 213.68C222.634 213.68 227.648 212.426 228.901 211.173" stroke="#E47477" stroke-miterlimit="10"/>
<path d="M134.944 177.076H160.819L166.038 141.562L142.538 143.705L139.163 148.205L134.944 177.076Z" fill="#BC214C"/>
<path d="M134.663 181.674H160.538V176.611H134.663V181.674Z" fill="#E2214C"/>
<path d="M185.387 81.0892C187.327 81.2877 189.198 81.9193 190.861 82.9375C192.524 83.9557 193.937 85.3344 194.997 86.9719C194.997 86.9719 207.376 109.049 198.268 120.104C198.268 120.104 190.363 130.967 180.624 124.319C170.885 117.672 171.014 94.2375 171.014 94.2375C171.014 94.2375 171.035 79.5307 185.387 81.0892Z" fill="#F5B2A9"/>
<path d="M190.526 104.256L191.967 109.512C191.967 109.512 192.92 112.374 190.534 112.374" stroke="#E47477" stroke-width="0.83" stroke-miterlimit="10"/>
<path d="M167.246 103.066C167.246 103.066 164.856 88.7392 172.498 83.4915C180.14 78.2439 183.482 80.6296 186.348 79.1965C189.214 77.7634 190.167 75.854 190.167 75.854C190.305 75.5858 190.508 75.3571 190.759 75.1897C191.01 75.0222 191.299 74.9216 191.6 74.8973C191.726 74.8944 191.852 74.9172 191.969 74.9643C192.087 75.0114 192.193 75.0817 192.283 75.1711C192.372 75.2606 192.443 75.3672 192.49 75.4846C192.537 75.6019 192.56 75.7276 192.557 75.854C192.557 75.854 191.6 78.716 193.509 78.716C195.419 78.716 197.332 73.9405 197.332 73.9405C197.332 73.9405 197.809 72.5074 198.765 72.5074C199.722 72.5074 199.718 72.9879 199.718 73.9405C199.718 74.8931 198.285 78.716 199.718 78.716C201.151 78.716 202.584 75.854 202.584 73.4642C202.584 71.0744 203.06 70.5981 203.541 70.5981C204.021 70.5981 204.974 71.0785 204.974 72.9879C204.974 74.8973 204.493 78.2397 204.974 78.2397C205.454 78.2397 207.836 77.2829 207.36 72.0311C206.883 66.7793 209.749 69.6455 209.749 69.6455C209.749 69.6455 213.092 75.854 210.702 81.1059C208.312 86.3577 202.108 91.6095 194.942 91.6095C187.777 91.6095 179.183 87.7907 176.321 90.6569C173.459 93.523 172.978 103.55 172.978 103.55C172.978 103.55 172.502 104.983 170.593 104.983C168.683 104.983 167.246 103.066 167.246 103.066Z" fill="#201C53"/>
<path d="M169.87 109.751C172.113 109.751 173.931 108.176 173.931 106.233C173.931 104.29 172.113 102.715 169.87 102.715C167.627 102.715 165.809 104.29 165.809 106.233C165.809 108.176 167.627 109.751 169.87 109.751Z" fill="#F5B2A9"/>
<path d="M169.87 104.975C171.541 105.928 171.065 106.884 171.065 106.884C171.065 106.884 170.112 105.928 169.155 106.408" fill="#F5B2A9"/>
<path d="M169.87 104.975C171.541 105.928 171.065 106.884 171.065 106.884C171.065 106.884 170.112 105.928 169.155 106.408" stroke="#E47477" stroke-miterlimit="10"/>
<path d="M191.152 116.611C191.152 116.611 188.717 117.304 185.579 115.215C185.579 115.215 186.628 118.7 188.366 118.7C190.104 118.7 191.152 116.611 191.152 116.611Z" fill="#E47477"/>
<path d="M183.152 104.637C183.152 104.983 183.432 105.263 183.778 105.263C184.125 105.263 184.405 104.983 184.405 104.637V103.383C184.405 103.037 184.125 102.756 183.778 102.756C183.432 102.756 183.152 103.037 183.152 103.383V104.637Z" fill="#201C53"/>
<path d="M194.015 104.637C194.015 104.983 194.295 105.263 194.641 105.263C194.987 105.263 195.268 104.983 195.268 104.637V103.383C195.268 103.037 194.987 102.756 194.641 102.756C194.295 102.756 194.015 103.037 194.015 103.383V104.637Z" fill="#201C53"/>
<path d="M184.697 99.8444C184.697 99.8444 182.111 100.517 181.142 100.496C180.172 100.475 179.295 99.5435 180.916 98.85C182.537 98.1564 184.718 97.6509 185.842 98.0436C186.966 98.4364 185.667 99.8653 184.697 99.8444Z" fill="#201C53"/>
<path d="M194.729 97.0032C194.729 97.0032 197.453 98.2566 197.294 99.2677C197.136 100.279 196.53 100.421 195.468 99.7147C194.407 99.0086 192.84 99.0713 192.235 99.2175C191.629 99.3638 190.467 98.0435 191.942 97.3625C192.811 96.9547 193.785 96.8291 194.729 97.0032Z" fill="#201C53"/>
<path d="M436.383 397.263C436.842 397.073 437.279 396.833 437.687 396.549L437.724 396.524C437.846 396.44 437.963 396.352 438.08 396.261L438.125 396.223L438.468 395.93L438.493 395.905C438.735 395.682 438.96 395.44 439.166 395.183C439.178 395.174 439.188 395.162 439.195 395.149C439.283 395.036 439.371 394.924 439.45 394.807C439.475 394.776 439.497 394.744 439.517 394.71C439.584 394.61 439.65 394.51 439.713 394.405L439.78 394.293C439.844 394.184 439.903 394.075 439.955 393.967C439.976 393.933 439.994 393.898 440.01 393.862C440.153 393.571 440.275 393.269 440.373 392.96C440.373 392.918 440.398 392.872 440.415 392.83C440.448 392.718 440.478 392.605 440.507 392.488C440.524 392.432 440.536 392.374 440.545 392.316C440.57 392.212 440.591 392.103 440.611 391.995C440.632 391.886 440.611 391.878 440.641 391.815C440.67 391.752 440.67 391.585 440.678 391.468C440.687 391.351 440.678 391.36 440.678 391.31C440.678 391.138 440.678 390.963 440.678 390.791V356.949L349.906 318.549C347.46 317.513 345.373 315.78 343.906 313.566C342.44 311.352 341.658 308.754 341.658 306.098V204.237L306.028 189.146C305.855 189.074 305.678 189.012 305.497 188.962L305.405 188.933C305.241 188.888 305.073 188.853 304.904 188.829H304.787C304.626 188.807 304.465 188.793 304.302 188.787H304.186C304.056 188.787 303.926 188.787 303.797 188.787H303.651C303.513 188.787 303.379 188.829 303.233 188.854L303.028 188.904C302.907 188.933 302.79 188.971 302.673 189.008L302.427 189.104L302.268 189.196C302.117 189.267 301.971 189.338 301.825 189.422L301.75 189.468C301.487 189.632 301.241 189.821 301.014 190.032C300.534 190.47 300.151 191.003 299.889 191.599C299.628 192.194 299.495 192.837 299.498 193.487V332.616C299.497 335.272 300.279 337.87 301.746 340.084C303.212 342.298 305.299 344.032 307.745 345.067L430.952 397.221C431.808 397.594 432.73 397.789 433.663 397.796C434.596 397.803 435.522 397.622 436.383 397.263Z" fill="#201C53"/>
<path d="M474.641 216.103L348.226 162.615C347.574 162.336 346.867 162.21 346.159 162.246C345.451 162.283 344.76 162.48 344.14 162.824L344.107 162.787L300.935 189.944L301.002 190.015C301.237 189.799 301.493 189.608 301.766 189.443L301.841 189.397C301.988 189.317 302.134 189.238 302.284 189.171L302.435 189.108L302.681 189.012C302.798 188.971 302.916 188.936 303.036 188.908L303.241 188.858C303.379 188.833 303.513 188.808 303.659 188.791H303.805C303.935 188.791 304.064 188.791 304.194 188.791H304.311C304.473 188.797 304.635 188.811 304.795 188.833H304.912C305.081 188.857 305.249 188.892 305.414 188.937L305.506 188.966C305.686 189.016 305.863 189.078 306.036 189.15L341.675 204.237L432.443 242.638C434.889 243.672 436.976 245.404 438.444 247.618C439.911 249.831 440.694 252.428 440.695 255.084V390.775C440.695 390.946 440.695 391.121 440.695 391.293C440.695 391.343 440.695 391.397 440.695 391.451C440.695 391.506 440.67 391.685 440.657 391.798C440.645 391.911 440.636 391.919 440.628 391.978C440.62 392.036 440.586 392.195 440.561 392.3C440.553 392.358 440.54 392.415 440.523 392.471C440.494 392.588 440.465 392.701 440.432 392.813C440.432 392.855 440.406 392.901 440.39 392.943C440.291 393.252 440.17 393.554 440.026 393.845C440.011 393.881 439.993 393.916 439.972 393.95C439.916 394.059 439.858 394.167 439.797 394.276L439.73 394.389C439.667 394.493 439.6 394.593 439.533 394.694C439.513 394.727 439.491 394.759 439.466 394.79C439.387 394.907 439.299 395.019 439.212 395.132C439.204 395.145 439.194 395.157 439.182 395.166C438.976 395.422 438.751 395.664 438.51 395.889L438.485 395.914L438.142 396.206L438.096 396.244C437.979 396.336 437.862 396.423 437.741 396.507L437.703 396.532C437.291 396.823 436.848 397.068 436.383 397.263L436.425 397.418L478.239 370.866C479.603 370.382 480.784 369.486 481.618 368.302C482.451 367.118 482.897 365.704 482.893 364.256V228.549C482.893 225.893 482.11 223.296 480.642 221.083C479.175 218.869 477.088 217.137 474.641 216.103Z" fill="#5831C2"/>
<path d="M379.019 179.223L362.357 188.854L418.844 210.964L435.506 201.338L379.019 179.223Z" fill="#201C53"/>
<path d="M379.019 175.931L362.357 185.561L418.844 207.676L435.506 198.045L379.019 175.931Z" stroke="#5831C2" stroke-width="1.14" stroke-miterlimit="10"/>
<path d="M423.118 194.369L413.329 204.693" stroke="#5831C2" stroke-width="1.14" stroke-miterlimit="10"/>
<path d="M404.354 201.25L417.95 191.983" stroke="#5831C2" stroke-width="1.14" stroke-miterlimit="10"/>
<path d="M397.36 198.271L407.617 187.483" stroke="#5831C2" stroke-width="1.14" stroke-miterlimit="10"/>
<path d="M399.462 184.834L388.185 194.039" stroke="#5831C2" stroke-width="1.14" stroke-miterlimit="10"/>
<path d="M383.965 188.808L391.849 182.185" stroke="#5831C2" stroke-width="1.14" stroke-miterlimit="10"/>
<path d="M385.052 179.273L373.219 186.042" stroke="#5831C2" stroke-width="1.14" stroke-miterlimit="10"/>
<path d="M376.6 179.461L427.781 201.091" stroke="#5831C2" stroke-width="1.14" stroke-miterlimit="10"/>
<path d="M420.055 204.383L374.669 182.281" stroke="#5831C2" stroke-width="1.14" stroke-miterlimit="10"/>
<path d="M321.412 186.593C324.411 186.593 326.843 185.841 326.843 184.914C326.843 183.986 324.411 183.234 321.412 183.234C318.412 183.234 315.98 183.986 315.98 184.914C315.98 185.841 318.412 186.593 321.412 186.593Z" fill="#F5B2A9"/>
<path d="M315.98 184.705L312.638 172.589H330.185L326.843 184.705H315.98Z" fill="#F5B2A9"/>
<path d="M321.411 175.095C326.257 175.095 330.185 173.88 330.185 172.38C330.185 170.88 326.257 169.664 321.411 169.664C316.566 169.664 312.638 170.88 312.638 172.38C312.638 173.88 316.566 175.095 321.411 175.095Z" fill="#E69F96"/>
<path d="M313.916 158.046C313.804 157.598 313.35 157.326 312.903 157.438C312.455 157.55 312.183 158.004 312.295 158.452L318.209 182.064C318.321 182.512 318.774 182.784 319.222 182.671C319.67 182.559 319.942 182.106 319.83 181.658L313.916 158.046Z" stroke="#5831C2" stroke-miterlimit="10"/>
<path d="M319.099 156.356L319.555 156.303C319.805 156.275 320.056 156.347 320.253 156.503C320.45 156.659 320.577 156.888 320.606 157.137L323.415 181.602C323.44 181.822 323.377 182.044 323.239 182.217C323.101 182.391 322.9 182.502 322.68 182.528L322.099 182.594C321.879 182.62 321.657 182.556 321.484 182.419C321.31 182.281 321.199 182.08 321.173 181.86L318.351 157.283C318.326 157.063 318.389 156.841 318.527 156.668C318.665 156.494 318.866 156.383 319.086 156.357L319.099 156.356Z" stroke="#5831C2" stroke-miterlimit="10"/>
<path d="M319.099 157.817L318.157 157.926L319.381 168.585L320.323 168.477L319.099 157.817Z" fill="#FFDFC8" stroke="#5831C2" stroke-miterlimit="10"/>
<path d="M382.62 197.448L377.606 199.955L389.723 204.551L394.736 202.044L382.62 197.448Z" fill="#E69F96"/>
<path d="M427.952 201.835L341.884 173.842V111.171L427.952 139.164V201.835Z" fill="#F5B2A9"/>
<path d="M385.127 186.167L370.086 181.154L361.312 194.106L389.723 204.551L385.127 186.167Z" fill="#F5B2A9"/>
<path d="M424.609 203.924L338.541 175.931V113.26L424.609 141.253V203.924Z" stroke="#201C53" stroke-miterlimit="10"/>
<path d="M387.463 129.392L376.855 126.316L384.789 124.478L395.397 127.549L387.463 129.392Z" fill="#E69F96"/>
<path d="M385.578 129.555L373.846 126.158L382.62 124.123L394.352 127.52L385.578 129.555Z" stroke="#201C53" stroke-miterlimit="10"/>
<path d="M389.932 127.466L381.994 126.212L382.829 122.034H388.261L389.932 127.466Z" fill="#E69F96"/>
<path d="M386.589 123.496C390.858 123.496 394.319 120.036 394.319 115.767C394.319 111.498 390.858 108.038 386.589 108.038C382.32 108.038 378.86 111.498 378.86 115.767C378.86 120.036 382.32 123.496 386.589 123.496Z" fill="#F5B2A9"/>
<path d="M384.859 119.226C386.738 119.226 388.26 117.704 388.26 115.825C388.26 113.947 386.738 112.424 384.859 112.424C382.981 112.424 381.458 113.947 381.458 115.825C381.458 117.704 382.981 119.226 384.859 119.226Z" fill="#E69F96"/>
<path d="M384.35 119.026C385.836 119.026 387.04 117.821 387.04 116.335C387.04 114.849 385.836 113.645 384.35 113.645C382.864 113.645 381.659 114.849 381.659 116.335C381.659 117.821 382.864 119.026 384.35 119.026Z" fill="#FFDFC8"/>
<path d="M385.754 123.496C390.023 123.496 393.483 120.036 393.483 115.767C393.483 111.498 390.023 108.038 385.754 108.038C381.485 108.038 378.024 111.498 378.024 115.767C378.024 120.036 381.485 123.496 385.754 123.496Z" stroke="#201C53" stroke-miterlimit="10"/>
<path d="M383.514 119.026C385 119.026 386.205 117.821 386.205 116.335C386.205 114.849 385 113.645 383.514 113.645C382.028 113.645 380.823 114.849 380.823 116.335C380.823 117.821 382.028 119.026 383.514 119.026Z" stroke="#201C53" stroke-miterlimit="10"/>
<path d="M514.471 145.368L503.19 148.293C503.19 148.293 505.697 172.108 504.444 190.491C503.19 208.875 452.636 206.786 452.636 206.786V215.977C452.636 215.977 493.999 221.827 509.875 204.697C525.752 187.567 514.471 145.368 514.471 145.368Z" fill="#E69F96"/>
<path d="M511.198 152.12C514.167 150.847 515.395 147.065 513.941 143.672C512.486 140.278 508.9 138.559 505.931 139.831C502.962 141.104 501.734 144.887 503.188 148.28C504.643 151.673 508.229 153.393 511.198 152.12Z" fill="#F5B2A9"/>
<path d="M444.902 214.895C445.073 217.452 441.622 217.941 437.198 218.238C432.773 218.534 429.046 218.526 428.875 215.973C428.704 213.42 432.155 209.288 436.579 208.983C441.004 208.678 444.739 212.338 444.902 214.895Z" fill="#201C53"/>
<path d="M452.636 215.977V206.786C452.636 206.786 445.533 206.368 441.773 206.786C438.012 207.203 435.088 207.203 434.252 208.039C433.417 208.875 433.726 209.43 433.726 209.43C433.726 209.43 436.274 208.925 438.188 209.318C438.188 209.318 434.67 208.457 432.163 210.964C429.656 213.471 432.581 212.635 432.581 212.635C432.581 212.635 435.088 210.964 437.177 210.546C437.177 210.546 434.252 212.217 433.834 213.471C433.417 214.724 438.012 211.799 438.012 211.799L436.759 213.888C436.759 213.888 438.012 214.306 439.266 212.635C440.259 212.405 441.302 212.554 442.19 213.053C443.862 213.888 452.636 215.977 452.636 215.977Z" fill="#E69F96"/>
<path d="M510.691 139.486C502.816 136.112 501.973 144.268 501.973 144.268V163.574H519.691C519.691 163.574 518.566 142.861 510.691 139.486Z" fill="#E2214C" stroke="#E2214C" stroke-miterlimit="10"/>
<path d="M519.972 163.674H501.41V165.924H519.972V163.674Z" fill="#BC214C"/>
</svg>
